<?xml version="1.0" standalone="no"?><!DOCTYPE svg PUBLIC "-//W3C//DTD SVG 1.1//EN" "http://www.w3.org/Graphics/SVG/1.1/DTD/svg11.dtd"><svg t="1611825888857" class="icon" viewBox="0 0 1024 1024" version="1.1" xmlns="http://www.w3.org/2000/svg" p-id="4362" xmlns:xlink="http://www.w3.org/1999/xlink" width="32" height="32"><defs><style type="text/css"></style></defs><path d="M853.333333 853.333333a42.666667 42.666667 0 0 1-42.666666 42.666667H213.333333a42.666667 42.666667 0 0 1-42.666666-42.666667v-384H42.666667l440.618666-400.554666a42.666667 42.666667 0 0 1 57.429334 0L981.333333 469.333333h-128v384zM366.592 589.141333l-42.282667 24.405334 42.666667 73.941333 42.368-24.448a149.333333 149.333333 0 0 0 59.946667 34.602667v48.853333h85.418666V697.6a149.333333 149.333333 0 0 0 59.946667-34.56l42.325333 24.405333L699.733333 613.546667l-42.282666-24.405334a149.504 149.504 0 0 0 0-69.12l42.282666-24.448-42.666666-73.941333-42.368 24.448A149.333333 149.333333 0 0 0 554.666667 411.52V362.666667h-85.418667v48.810666a149.333333 149.333333 0 0 0-59.946667 34.602667l-42.325333-24.448L324.266667 495.616l42.282666 24.405333a149.504 149.504 0 0 0 0 69.12z m145.408 29.44a64 64 0 1 1-0.085333-128.042666 64 64 0 0 1 0.085333 128z" p-id="4363" fill="#409eff"></path></svg>