<?xml version="1.0" standalone="no"?><!DOCTYPE svg PUBLIC "-//W3C//DTD SVG 1.1//EN" "http://www.w3.org/Graphics/SVG/1.1/DTD/svg11.dtd"><svg t="1611913526527" class="icon" viewBox="0 0 1024 1024" version="1.1" xmlns="http://www.w3.org/2000/svg" p-id="4861" xmlns:xlink="http://www.w3.org/1999/xlink" width="32" height="32"><defs><style type="text/css"></style></defs><path d="M807.893592 80.449263 220.596675 80.449263c-76.004021 0-138.188292 62.185294-138.188292 138.188292l0 585.568553c0 76.001975 62.184271 138.186246 138.188292 138.186246L807.893592 942.392354c76.001975 0 138.184199-62.184271 138.184199-138.186246l0-5.180999c0 0-224.554312-93.278453-338.559832-148.555407-76.002998 93.278453-174.460404 150.279678-276.373515 150.279678-171.006745 0-229.736335-150.279678-148.552338-248.735038 17.273409-20.730137 48.365544-41.459251 95.005794-53.547567 74.27361-18.999726 191.735859 10.360975 300.559357 46.636157 18.999726-36.275181 36.270065-76.001975 48.363498-119.187543L287.960922 425.915389l0-34.544771 174.463474 0 0-58.729589L251.689834 332.641029l0-34.547841L462.42542 298.093189l0-88.095407c0 0 0-15.544021 15.542998-15.544021l84.640726 0 0 101.913111L771.617387 296.366871l0 34.545794L562.609143 330.912665l0 60.46 171.005722 0c-17.274432 65.637929-41.453111 127.824247-72.545246 181.368744 51.819203 18.998703 98.455359 36.275181 133.005246 48.367591 124.366496 41.454134 152.002926 44.909839 152.002926 44.909839l0-1.725294L946.077791 218.637556C946.077791 142.634558 883.89659 80.449263 807.893592 80.449263z" p-id="4862"></path><path d="M293.142945 548.558637c-22.452361 1.730411-62.185294 12.091386-84.637656 31.091112-67.36834 58.735729-27.6395 164.100452 107.095133 164.100452 77.731362 0 155.460678-50.095955 219.37229-129.550565C446.876282 571.015092 372.603695 539.921933 293.142945 548.558637z" p-id="4863"></path></svg>